<svg width="15" height="15" viewBox="0 0 15 15" fill="none" xmlns="http://www.w3.org/2000/svg">
<g clip-path="url(#clip0_2_121)">
<path d="M9.06538 5.08929V1.70786C9.06538 1.10786 8.57895 0.620361 7.97788 0.620361H2.84573C2.24359 0.620361 1.75716 1.10679 1.75716 1.70786V14.3796M0.556091 14.3796H5.87895M1.75716 3.41465H4.39288M1.75716 6.16072H5.87895M8.01323 14.3796C8.01849 13.8313 8.16223 13.2933 8.43109 12.8154C8.71185 12.3195 9.11817 11.9063 9.60923 11.6172C10.1003 11.3281 10.6588 11.1734 11.2286 11.1686C11.7987 11.1734 12.3574 11.3283 12.8487 11.6175C13.3399 11.9068 13.7464 12.3203 14.0272 12.8164C14.295 13.2932 14.4397 13.8311 14.445 14.3796M11.2286 10.7486C11.7259 10.7486 12.2028 10.551 12.5544 10.1994C12.906 9.84777 13.1036 9.37086 13.1036 8.87357C13.1036 8.37629 12.906 7.89938 12.5544 7.54775C12.2028 7.19612 11.7259 6.99858 11.2286 6.99858C10.7313 6.99858 10.2544 7.19612 9.90277 7.54775C9.55114 7.89938 9.35359 8.37629 9.35359 8.87357C9.35359 9.37086 9.55114 9.84777 9.90277 10.1994C10.2544 10.551 10.7313 10.7486 11.2286 10.7486Z" stroke="black" stroke-linecap="round" stroke-linejoin="round"/>
</g>
<defs>
<clipPath id="clip0_2_121">
<rect width="15" height="15" fill="white"/>
</clipPath>
</defs>
</svg>
