<svg width="20" height="20" viewBox="0 0 20 20" fill="none" xmlns="http://www.w3.org/2000/svg">
<path d="M16.6625 3.41416C16.6302 2.94002 16.419 2.49584 16.0717 2.17144C15.7244 1.84703 15.2669 1.66661 14.7916 1.66666H5.20831L5.07998 1.67082C4.60585 1.70335 4.16175 1.91471 3.8375 2.26217C3.51325 2.60962 3.33304 3.06724 3.33331 3.54249V16.4575L3.33748 16.5858C3.3698 17.06 3.58095 17.5041 3.92825 17.8285C4.27555 18.1529 4.73307 18.3334 5.20831 18.3333H11.515L10.265 17.0833H5.20831L5.12331 17.0775C4.97369 17.0569 4.83656 16.9829 4.73729 16.8691C4.63802 16.7553 4.58332 16.6094 4.58331 16.4583V3.54249L4.58915 3.45749C4.60969 3.30786 4.68371 3.17073 4.79754 3.07146C4.91136 2.97219 5.05728 2.9175 5.20831 2.91749H14.7916L14.8766 2.92332C15.0263 2.94386 15.1634 3.01789 15.2627 3.13171C15.3619 3.24554 15.4166 3.39146 15.4166 3.54249V13.1817L16.3825 12.2158C16.4714 12.1269 16.5658 12.0492 16.6658 11.9825V3.54166L16.6625 3.41416ZM13.5733 18.3325H13.51C13.3551 18.3247 13.2087 18.2597 13.0991 18.15L11.0158 16.065C10.8987 15.9476 10.833 15.7885 10.8331 15.6227C10.8333 15.4569 10.8993 15.298 11.0166 15.1808C11.134 15.0637 11.2931 14.998 11.4589 14.9981C11.6247 14.9983 11.7837 15.0643 11.9008 15.1817L13.5416 16.8242L17.2666 13.0992C17.3243 13.0395 17.3933 12.9919 17.4696 12.9592C17.5459 12.9265 17.6279 12.9093 17.7109 12.9086C17.7938 12.9079 17.8761 12.9238 17.9529 12.9552C18.0297 12.9867 18.0995 13.0331 18.1581 13.0918C18.2168 13.1505 18.2632 13.2203 18.2946 13.2972C18.326 13.374 18.3417 13.4563 18.341 13.5393C18.3402 13.6223 18.3229 13.7043 18.2901 13.7805C18.2573 13.8568 18.2097 13.9257 18.15 13.9833L13.9833 18.15C13.874 18.2595 13.7279 18.3245 13.5733 18.3325ZM11.5333 13.75C11.4828 13.7477 11.4322 13.7477 11.3816 13.75H9.37081C9.20505 13.75 9.04608 13.6841 8.92887 13.5669C8.81166 13.4497 8.74581 13.2907 8.74581 13.125C8.74581 12.9592 8.81166 12.8003 8.92887 12.683C9.04608 12.5658 9.20505 12.5 9.37081 12.5H13.5408C13.7066 12.5 13.8655 12.5658 13.9828 12.683C14.1 12.8003 14.1658 12.9592 14.1658 13.125C14.1658 13.2907 14.1 13.4497 13.9828 13.5669C13.8655 13.6841 13.7066 13.75 13.5408 13.75H11.5333ZM7.49998 6.45999C7.49998 6.681 7.41218 6.89296 7.2559 7.04924C7.09962 7.20553 6.88766 7.29332 6.66665 7.29332C6.44563 7.29332 6.23367 7.20553 6.07739 7.04924C5.92111 6.89296 5.83331 6.681 5.83331 6.45999C5.83331 6.23898 5.92111 6.02701 6.07739 5.87073C6.23367 5.71445 6.44563 5.62666 6.66665 5.62666C6.88766 5.62666 7.09962 5.71445 7.2559 5.87073C7.41218 6.02701 7.49998 6.23898 7.49998 6.45999ZM8.74665 6.45832C8.74665 6.29256 8.81249 6.13359 8.9297 6.01638C9.04692 5.89917 9.20589 5.83332 9.37165 5.83332H13.5416C13.7074 5.83332 13.8664 5.89917 13.9836 6.01638C14.1008 6.13359 14.1666 6.29256 14.1666 6.45832C14.1666 6.62408 14.1008 6.78305 13.9836 6.90026C13.8664 7.01747 13.7074 7.08332 13.5416 7.08332H9.37165C9.20589 7.08332 9.04692 7.01747 8.9297 6.90026C8.81249 6.78305 8.74665 6.62408 8.74665 6.45832ZM9.37165 9.16666C9.20589 9.16666 9.04692 9.2325 8.9297 9.34971C8.81249 9.46693 8.74665 9.6259 8.74665 9.79166C8.74665 9.95742 8.81249 10.1164 8.9297 10.2336C9.04692 10.3508 9.20589 10.4167 9.37165 10.4167H13.5416C13.6237 10.4167 13.705 10.4005 13.7808 10.3691C13.8567 10.3377 13.9256 10.2916 13.9836 10.2336C14.0416 10.1756 14.0877 10.1067 14.1191 10.0308C14.1505 9.95501 14.1666 9.87373 14.1666 9.79166C14.1666 9.70958 14.1505 9.62831 14.1191 9.55248C14.0877 9.47665 14.0416 9.40775 13.9836 9.34971C13.9256 9.29168 13.8567 9.24564 13.7808 9.21423C13.705 9.18282 13.6237 9.16666 13.5416 9.16666H9.37165ZM6.66665 10.625C6.88766 10.625 7.09962 10.5372 7.2559 10.3809C7.41218 10.2246 7.49998 10.0127 7.49998 9.79166C7.49998 9.57064 7.41218 9.35868 7.2559 9.2024C7.09962 9.04612 6.88766 8.95832 6.66665 8.95832C6.44563 8.95832 6.23367 9.04612 6.07739 9.2024C5.92111 9.35868 5.83331 9.57064 5.83331 9.79166C5.83331 10.0127 5.92111 10.2246 6.07739 10.3809C6.23367 10.5372 6.44563 10.625 6.66665 10.625ZM7.49998 13.1233C7.49998 13.3443 7.41218 13.5563 7.2559 13.7126C7.09962 13.8689 6.88766 13.9567 6.66665 13.9567C6.44563 13.9567 6.23367 13.8689 6.07739 13.7126C5.92111 13.5563 5.83331 13.3443 5.83331 13.1233C5.83331 12.9023 5.92111 12.6903 6.07739 12.5341C6.23367 12.3778 6.44563 12.29 6.66665 12.29C6.88766 12.29 7.09962 12.3778 7.2559 12.5341C7.41218 12.6903 7.49998 12.9023 7.49998 13.1233Z" fill="black"/>
</svg>
