<svg width="18" height="17" viewBox="0 0 18 17" fill="none" xmlns="http://www.w3.org/2000/svg">
<path d="M17.3399 7.88189L9.79305 0.655854L9.28719 0.171249C9.17193 0.0615612 9.01606 0 8.8536 0C8.69113 0 8.53526 0.0615612 8.42 0.171249L0.367268 7.88189C0.249165 7.99459 0.155826 8.12882 0.0927609 8.27664C0.0296957 8.42447 -0.00181763 8.5829 8.09564e-05 8.74258C0.00789346 9.40119 0.580159 9.92696 1.26766 9.92696H2.09774V16.021H15.6095V9.92696H16.4571C16.7911 9.92696 17.1055 9.8016 17.3419 9.5752C17.4582 9.46408 17.5504 9.33195 17.6131 9.18646C17.6758 9.04097 17.7078 8.88501 17.7071 8.72761C17.7071 8.40953 17.5763 8.10829 17.3399 7.88189ZM9.94735 14.6738H7.75985V10.8569H9.94735V14.6738ZM14.2032 8.5798V14.6738H11.1973V10.4078C11.1973 9.99432 10.8477 9.6594 10.4161 9.6594H7.2911C6.85946 9.6594 6.50985 9.99432 6.50985 10.4078V14.6738H3.50399V8.5798H1.62899L8.85555 1.66249L9.30672 2.0947L16.0802 8.5798H14.2032Z" fill="black"/>
</svg>
