<svg width="22" height="22" viewBox="0 0 22 22" fill="none" xmlns="http://www.w3.org/2000/svg">
<g clip-path="url(#clip0_27_148)">
<path d="M9.68607 11.4217C9.44792 11.6585 9.2794 11.9562 9.19892 12.2823C9.11844 12.6084 9.12908 12.9503 9.22969 13.2708C9.3303 13.5912 9.51701 13.8779 9.76943 14.0995C10.0219 14.321 10.3303 14.469 10.6611 14.5272C10.9919 14.5854 11.3323 14.5516 11.6452 14.4296C11.9581 14.3075 12.2315 14.1018 12.4354 13.8349C12.6394 13.5681 12.7661 13.2503 12.8018 12.9164C12.8375 12.5824 12.7807 12.245 12.6377 11.9411L16.2555 8.39057L15.3938 7.5289L11.7822 11.0795C11.4405 10.9119 11.0551 10.8548 10.6795 10.9161C10.3039 10.9774 9.95672 11.1541 9.68607 11.4217Z" fill="black"/>
<path d="M19.91 7.94445C19.5051 8.09286 19.0813 8.18338 18.6511 8.21334C19.3483 9.41194 19.7525 10.7583 19.8305 12.1428H17.6733V13.365H19.8305C19.6883 15.1157 19.0265 16.784 17.93 18.1561H4.06998C2.97345 16.784 2.31165 15.1157 2.16942 13.365H4.27775V12.1428H2.16942C2.27661 10.2107 3.01762 8.3679 4.27775 6.89945L5.77498 8.39667L6.63664 7.53501L5.15164 6.03167C6.60784 4.74399 8.44941 3.9747 10.3889 3.8439V5.98278H11.6111V3.85001C12.3555 3.89928 13.0907 4.04303 13.7989 4.27778C13.7689 4.0754 13.7526 3.87124 13.75 3.66667C13.7521 3.44359 13.7705 3.22096 13.805 3.00056C11.7258 2.39578 9.50718 2.47678 7.47767 3.23157C5.44816 3.98635 3.71574 5.37478 2.53704 7.19117C1.35834 9.00756 0.796052 11.1553 0.933467 13.3163C1.07088 15.4772 1.90069 17.5364 3.29998 19.1889L3.48331 19.4028H18.5166L18.7 19.1889C20.0032 17.6558 20.8164 15.7669 21.0343 13.7666C21.2521 11.7663 20.8648 9.74662 19.9222 7.9689L19.91 7.94445Z" fill="black"/>
<path d="M18.3334 6.72223C20.0209 6.72223 21.3889 5.35421 21.3889 3.66667C21.3889 1.97913 20.0209 0.611115 18.3334 0.611115C16.6459 0.611115 15.2778 1.97913 15.2778 3.66667C15.2778 5.35421 16.6459 6.72223 18.3334 6.72223Z" fill="black"/>
</g>
<defs>
<clipPath id="clip0_27_148">
<rect width="22" height="22" fill="white"/>
</clipPath>
</defs>
</svg>
